<?xml version="1.0" encoding="utf-8" standalone="no"?>
<!DOCTYPE svg PUBLIC "-//W3C//DTD SVG 1.1//EN"
  "http://www.w3.org/Graphics/SVG/1.1/DTD/svg11.dtd">
<!-- Created with matplotlib (http://matplotlib.org/) -->
<svg height="720pt" version="1.1" viewBox="0 0 1440 720" width="1440pt" xmlns="http://www.w3.org/2000/svg" xmlns:xlink="http://www.w3.org/1999/xlink">
 <defs>
  <style type="text/css">
*{stroke-linecap:butt;stroke-linejoin:round;}
  </style>
 </defs>
 <g id="figure_1">
  <g id="patch_1">
   <path d="M 0 720 
L 1440 720 
L 1440 0 
L 0 0 
z
" style="fill:#ffffff;"/>
  </g>
  <g id="axes_1">
   <g id="patch_2">
    <path d="M 180 630 
L 1296 630 
L 1296 86.4 
L 180 86.4 
z
" style="fill:#ffffff;"/>
   </g>
   <g id="matplotlib.axis_1">
    <g id="xtick_1">
     <g id="line2d_1">
      <path clip-path="url(#p7713f615bb)" d="M 221.53746 630 
L 221.53746 86.4 
" style="fill:none;stroke:#b0b0b0;stroke-linecap:square;stroke-width:0.8;"/>
     </g>
     <g id="line2d_2">
      <defs>
       <path d="M 0 0 
L 0 3.5 
" id="mcb637852a0" style="stroke:#000000;stroke-width:0.8;"/>
      </defs>
      <g>
       <use style="stroke:#000000;stroke-width:0.8;" x="221.53746" xlink:href="#mcb637852a0" y="630"/>
      </g>
     </g>
     <g id="text_1">
      <!-- 0 -->
      <defs>
       <path d="M 31.78125 66.40625 
Q 24.171875 66.40625 20.328125 58.90625 
Q 16.5 51.421875 16.5 36.375 
Q 16.5 21.390625 20.328125 13.890625 
Q 24.171875 6.390625 31.78125 6.390625 
Q 39.453125 6.390625 43.28125 13.890625 
Q 47.125 21.390625 47.125 36.375 
Q 47.125 51.421875 43.28125 58.90625 
Q 39.453125 66.40625 31.78125 66.40625 
z
M 31.78125 74.21875 
Q 44.046875 74.21875 50.515625 64.515625 
Q 56.984375 54.828125 56.984375 36.375 
Q 56.984375 17.96875 50.515625 8.265625 
Q 44.046875 -1.421875 31.78125 -1.421875 
Q 19.53125 -1.421875 13.0625 8.265625 
Q 6.59375 17.96875 6.59375 36.375 
Q 6.59375 54.828125 13.0625 64.515625 
Q 19.53125 74.21875 31.78125 74.21875 
z
" id="DejaVuSans-30"/>
      </defs>
      <g transform="translate(218.35621 644.598438)scale(0.1 -0.1)">
       <use xlink:href="#DejaVuSans-30"/>
      </g>
     </g>
    </g>
    <g id="xtick_2">
     <g id="line2d_3">
      <path clip-path="url(#p7713f615bb)" d="M 426.575668 630 
L 426.575668 86.4 
" style="fill:none;stroke:#b0b0b0;stroke-linecap:square;stroke-width:0.8;"/>
     </g>
     <g id="line2d_4">
      <g>
       <use style="stroke:#000000;stroke-width:0.8;" x="426.575668" xlink:href="#mcb637852a0" y="630"/>
      </g>
     </g>
     <g id="text_2">
      <!-- 50 -->
      <defs>
       <path d="M 10.796875 72.90625 
L 49.515625 72.90625 
L 49.515625 64.59375 
L 19.828125 64.59375 
L 19.828125 46.734375 
Q 21.96875 47.46875 24.109375 47.828125 
Q 26.265625 48.1875 28.421875 48.1875 
Q 40.625 48.1875 47.75 41.5 
Q 54.890625 34.8125 54.890625 23.390625 
Q 54.890625 11.625 47.5625 5.09375 
Q 40.234375 -1.421875 26.90625 -1.421875 
Q 22.3125 -1.421875 17.546875 -0.640625 
Q 12.796875 0.140625 7.71875 1.703125 
L 7.71875 11.625 
Q 12.109375 9.234375 16.796875 8.0625 
Q 21.484375 6.890625 26.703125 6.890625 
Q 35.15625 6.890625 40.078125 11.328125 
Q 45.015625 15.765625 45.015625 23.390625 
Q 45.015625 31 40.078125 35.4375 
Q 35.15625 39.890625 26.703125 39.890625 
Q 22.75 39.890625 18.8125 39.015625 
Q 14.890625 38.140625 10.796875 36.28125 
z
" id="DejaVuSans-35"/>
      </defs>
      <g transform="translate(420.213168 644.598438)scale(0.1 -0.1)">
       <use xlink:href="#DejaVuSans-35"/>
       <use x="63.623047" xlink:href="#DejaVuSans-30"/>
      </g>
     </g>
    </g>
    <g id="xtick_3">
     <g id="line2d_5">
      <path clip-path="url(#p7713f615bb)" d="M 631.613876 630 
L 631.613876 86.4 
" style="fill:none;stroke:#b0b0b0;stroke-linecap:square;stroke-width:0.8;"/>
     </g>
     <g id="line2d_6">
      <g>
       <use style="stroke:#000000;stroke-width:0.8;" x="631.613876" xlink:href="#mcb637852a0" y="630"/>
      </g>
     </g>
     <g id="text_3">
      <!-- 100 -->
      <defs>
       <path d="M 12.40625 8.296875 
L 28.515625 8.296875 
L 28.515625 63.921875 
L 10.984375 60.40625 
L 10.984375 69.390625 
L 28.421875 72.90625 
L 38.28125 72.90625 
L 38.28125 8.296875 
L 54.390625 8.296875 
L 54.390625 0 
L 12.40625 0 
z
" id="DejaVuSans-31"/>
      </defs>
      <g transform="translate(622.070126 644.598438)scale(0.1 -0.1)">
       <use xlink:href="#DejaVuSans-31"/>
       <use x="63.623047" xlink:href="#DejaVuSans-30"/>
       <use x="127.246094" xlink:href="#DejaVuSans-30"/>
      </g>
     </g>
    </g>
    <g id="xtick_4">
     <g id="line2d_7">
      <path clip-path="url(#p7713f615bb)" d="M 836.652083 630 
L 836.652083 86.4 
" style="fill:none;stroke:#b0b0b0;stroke-linecap:square;stroke-width:0.8;"/>
     </g>
     <g id="line2d_8">
      <g>
       <use style="stroke:#000000;stroke-width:0.8;" x="836.652083" xlink:href="#mcb637852a0" y="630"/>
      </g>
     </g>
     <g id="text_4">
      <!-- 150 -->
      <g transform="translate(827.108333 644.598438)scale(0.1 -0.1)">
       <use xlink:href="#DejaVuSans-31"/>
       <use x="63.623047" xlink:href="#DejaVuSans-35"/>
       <use x="127.246094" xlink:href="#DejaVuSans-30"/>
      </g>
     </g>
    </g>
    <g id="xtick_5">
     <g id="line2d_9">
      <path clip-path="url(#p7713f615bb)" d="M 1041.690291 630 
L 1041.690291 86.4 
" style="fill:none;stroke:#b0b0b0;stroke-linecap:square;stroke-width:0.8;"/>
     </g>
     <g id="line2d_10">
      <g>
       <use style="stroke:#000000;stroke-width:0.8;" x="1041.690291" xlink:href="#mcb637852a0" y="630"/>
      </g>
     </g>
     <g id="text_5">
      <!-- 200 -->
      <defs>
       <path d="M 19.1875 8.296875 
L 53.609375 8.296875 
L 53.609375 0 
L 7.328125 0 
L 7.328125 8.296875 
Q 12.9375 14.109375 22.625 23.890625 
Q 32.328125 33.6875 34.8125 36.53125 
Q 39.546875 41.84375 41.421875 45.53125 
Q 43.3125 49.21875 43.3125 52.78125 
Q 43.3125 58.59375 39.234375 62.25 
Q 35.15625 65.921875 28.609375 65.921875 
Q 23.96875 65.921875 18.8125 64.3125 
Q 13.671875 62.703125 7.8125 59.421875 
L 7.8125 69.390625 
Q 13.765625 71.78125 18.9375 73 
Q 24.125 74.21875 28.421875 74.21875 
Q 39.75 74.21875 46.484375 68.546875 
Q 53.21875 62.890625 53.21875 53.421875 
Q 53.21875 48.921875 51.53125 44.890625 
Q 49.859375 40.875 45.40625 35.40625 
Q 44.1875 33.984375 37.640625 27.21875 
Q 31.109375 20.453125 19.1875 8.296875 
z
" id="DejaVuSans-32"/>
      </defs>
      <g transform="translate(1032.146541 644.598438)scale(0.1 -0.1)">
       <use xlink:href="#DejaVuSans-32"/>
       <use x="63.623047" xlink:href="#DejaVuSans-30"/>
       <use x="127.246094" xlink:href="#DejaVuSans-30"/>
      </g>
     </g>
    </g>
    <g id="xtick_6">
     <g id="line2d_11">
      <path clip-path="url(#p7713f615bb)" d="M 1246.728499 630 
L 1246.728499 86.4 
" style="fill:none;stroke:#b0b0b0;stroke-linecap:square;stroke-width:0.8;"/>
     </g>
     <g id="line2d_12">
      <g>
       <use style="stroke:#000000;stroke-width:0.8;" x="1246.728499" xlink:href="#mcb637852a0" y="630"/>
      </g>
     </g>
     <g id="text_6">
      <!-- 250 -->
      <g transform="translate(1237.184749 644.598438)scale(0.1 -0.1)">
       <use xlink:href="#DejaVuSans-32"/>
       <use x="63.623047" xlink:href="#DejaVuSans-35"/>
       <use x="127.246094" xlink:href="#DejaVuSans-30"/>
      </g>
     </g>
    </g>
   </g>
   <g id="matplotlib.axis_2">
    <g id="ytick_1">
     <g id="line2d_13">
      <path clip-path="url(#p7713f615bb)" d="M 180 572.885544 
L 1296 572.885544 
" style="fill:none;stroke:#b0b0b0;stroke-linecap:square;stroke-width:0.8;"/>
     </g>
     <g id="line2d_14">
      <defs>
       <path d="M 0 0 
L -3.5 0 
" id="mc2964a0387" style="stroke:#008000;stroke-width:0.8;"/>
      </defs>
      <g>
       <use style="fill:#008000;stroke:#008000;stroke-width:0.8;" x="180" xlink:href="#mc2964a0387" y="572.885544"/>
      </g>
     </g>
     <g id="text_7">
      <!-- 12.0 -->
      <defs>
       <path d="M 10.6875 12.40625 
L 21 12.40625 
L 21 0 
L 10.6875 0 
z
" id="DejaVuSans-2e"/>
      </defs>
      <g style="fill:#008000;" transform="translate(150.734375 576.684763)scale(0.1 -0.1)">
       <use xlink:href="#DejaVuSans-31"/>
       <use x="63.623047" xlink:href="#DejaVuSans-32"/>
       <use x="127.246094" xlink:href="#DejaVuSans-2e"/>
       <use x="159.033203" xlink:href="#DejaVuSans-30"/>
      </g>
     </g>
    </g>
    <g id="ytick_2">
     <g id="line2d_15">
      <path clip-path="url(#p7713f615bb)" d="M 180 491.872131 
L 1296 491.872131 
" style="fill:none;stroke:#b0b0b0;stroke-linecap:square;stroke-width:0.8;"/>
     </g>
     <g id="line2d_16">
      <g>
       <use style="fill:#008000;stroke:#008000;stroke-width:0.8;" x="180" xlink:href="#mc2964a0387" y="491.872131"/>
      </g>
     </g>
     <g id="text_8">
      <!-- 12.1 -->
      <g style="fill:#008000;" transform="translate(150.734375 495.67135)scale(0.1 -0.1)">
       <use xlink:href="#DejaVuSans-31"/>
       <use x="63.623047" xlink:href="#DejaVuSans-32"/>
       <use x="127.246094" xlink:href="#DejaVuSans-2e"/>
       <use x="159.033203" xlink:href="#DejaVuSans-31"/>
      </g>
     </g>
    </g>
    <g id="ytick_3">
     <g id="line2d_17">
      <path clip-path="url(#p7713f615bb)" d="M 180 410.858718 
L 1296 410.858718 
" style="fill:none;stroke:#b0b0b0;stroke-linecap:square;stroke-width:0.8;"/>
     </g>
     <g id="line2d_18">
      <g>
       <use style="fill:#008000;stroke:#008000;stroke-width:0.8;" x="180" xlink:href="#mc2964a0387" y="410.858718"/>
      </g>
     </g>
     <g id="text_9">
      <!-- 12.2 -->
      <g style="fill:#008000;" transform="translate(150.734375 414.657937)scale(0.1 -0.1)">
       <use xlink:href="#DejaVuSans-31"/>
       <use x="63.623047" xlink:href="#DejaVuSans-32"/>
       <use x="127.246094" xlink:href="#DejaVuSans-2e"/>
       <use x="159.033203" xlink:href="#DejaVuSans-32"/>
      </g>
     </g>
    </g>
    <g id="ytick_4">
     <g id="line2d_19">
      <path clip-path="url(#p7713f615bb)" d="M 180 329.845306 
L 1296 329.845306 
" style="fill:none;stroke:#b0b0b0;stroke-linecap:square;stroke-width:0.8;"/>
     </g>
     <g id="line2d_20">
      <g>
       <use style="fill:#008000;stroke:#008000;stroke-width:0.8;" x="180" xlink:href="#mc2964a0387" y="329.845306"/>
      </g>
     </g>
     <g id="text_10">
      <!-- 12.3 -->
      <defs>
       <path d="M 40.578125 39.3125 
Q 47.65625 37.796875 51.625 33 
Q 55.609375 28.21875 55.609375 21.1875 
Q 55.609375 10.40625 48.1875 4.484375 
Q 40.765625 -1.421875 27.09375 -1.421875 
Q 22.515625 -1.421875 17.65625 -0.515625 
Q 12.796875 0.390625 7.625 2.203125 
L 7.625 11.71875 
Q 11.71875 9.328125 16.59375 8.109375 
Q 21.484375 6.890625 26.8125 6.890625 
Q 36.078125 6.890625 40.9375 10.546875 
Q 45.796875 14.203125 45.796875 21.1875 
Q 45.796875 27.640625 41.28125 31.265625 
Q 36.765625 34.90625 28.71875 34.90625 
L 20.21875 34.90625 
L 20.21875 43.015625 
L 29.109375 43.015625 
Q 36.375 43.015625 40.234375 45.921875 
Q 44.09375 48.828125 44.09375 54.296875 
Q 44.09375 59.90625 40.109375 62.90625 
Q 36.140625 65.921875 28.71875 65.921875 
Q 24.65625 65.921875 20.015625 65.03125 
Q 15.375 64.15625 9.8125 62.3125 
L 9.8125 71.09375 
Q 15.4375 72.65625 20.34375 73.4375 
Q 25.25 74.21875 29.59375 74.21875 
Q 40.828125 74.21875 47.359375 69.109375 
Q 53.90625 64.015625 53.90625 55.328125 
Q 53.90625 49.265625 50.4375 45.09375 
Q 46.96875 40.921875 40.578125 39.3125 
z
" id="DejaVuSans-33"/>
      </defs>
      <g style="fill:#008000;" transform="translate(150.734375 333.644524)scale(0.1 -0.1)">
       <use xlink:href="#DejaVuSans-31"/>
       <use x="63.623047" xlink:href="#DejaVuSans-32"/>
       <use x="127.246094" xlink:href="#DejaVuSans-2e"/>
       <use x="159.033203" xlink:href="#DejaVuSans-33"/>
      </g>
     </g>
    </g>
    <g id="ytick_5">
     <g id="line2d_21">
      <path clip-path="url(#p7713f615bb)" d="M 180 248.831893 
L 1296 248.831893 
" style="fill:none;stroke:#b0b0b0;stroke-linecap:square;stroke-width:0.8;"/>
     </g>
     <g id="line2d_22">
      <g>
       <use style="fill:#008000;stroke:#008000;stroke-width:0.8;" x="180" xlink:href="#mc2964a0387" y="248.831893"/>
      </g>
     </g>
     <g id="text_11">
      <!-- 12.4 -->
      <defs>
       <path d="M 37.796875 64.3125 
L 12.890625 25.390625 
L 37.796875 25.390625 
z
M 35.203125 72.90625 
L 47.609375 72.90625 
L 47.609375 25.390625 
L 58.015625 25.390625 
L 58.015625 17.1875 
L 47.609375 17.1875 
L 47.609375 0 
L 37.796875 0 
L 37.796875 17.1875 
L 4.890625 17.1875 
L 4.890625 26.703125 
z
" id="DejaVuSans-34"/>
      </defs>
      <g style="fill:#008000;" transform="translate(150.734375 252.631111)scale(0.1 -0.1)">
       <use xlink:href="#DejaVuSans-31"/>
       <use x="63.623047" xlink:href="#DejaVuSans-32"/>
       <use x="127.246094" xlink:href="#DejaVuSans-2e"/>
       <use x="159.033203" xlink:href="#DejaVuSans-34"/>
      </g>
     </g>
    </g>
    <g id="ytick_6">
     <g id="line2d_23">
      <path clip-path="url(#p7713f615bb)" d="M 180 167.81848 
L 1296 167.81848 
" style="fill:none;stroke:#b0b0b0;stroke-linecap:square;stroke-width:0.8;"/>
     </g>
     <g id="line2d_24">
      <g>
       <use style="fill:#008000;stroke:#008000;stroke-width:0.8;" x="180" xlink:href="#mc2964a0387" y="167.81848"/>
      </g>
     </g>
     <g id="text_12">
      <!-- 12.5 -->
      <g style="fill:#008000;" transform="translate(150.734375 171.617699)scale(0.1 -0.1)">
       <use xlink:href="#DejaVuSans-31"/>
       <use x="63.623047" xlink:href="#DejaVuSans-32"/>
       <use x="127.246094" xlink:href="#DejaVuSans-2e"/>
       <use x="159.033203" xlink:href="#DejaVuSans-35"/>
      </g>
     </g>
    </g>
    <g id="ytick_7">
     <g id="line2d_25">
      <path clip-path="url(#p7713f615bb)" d="M 180 86.805067 
L 1296 86.805067 
" style="fill:none;stroke:#b0b0b0;stroke-linecap:square;stroke-width:0.8;"/>
     </g>
     <g id="line2d_26">
      <g>
       <use style="fill:#008000;stroke:#008000;stroke-width:0.8;" x="180" xlink:href="#mc2964a0387" y="86.805067"/>
      </g>
     </g>
     <g id="text_13">
      <!-- 12.6 -->
      <defs>
       <path d="M 33.015625 40.375 
Q 26.375 40.375 22.484375 35.828125 
Q 18.609375 31.296875 18.609375 23.390625 
Q 18.609375 15.53125 22.484375 10.953125 
Q 26.375 6.390625 33.015625 6.390625 
Q 39.65625 6.390625 43.53125 10.953125 
Q 47.40625 15.53125 47.40625 23.390625 
Q 47.40625 31.296875 43.53125 35.828125 
Q 39.65625 40.375 33.015625 40.375 
z
M 52.59375 71.296875 
L 52.59375 62.3125 
Q 48.875 64.0625 45.09375 64.984375 
Q 41.3125 65.921875 37.59375 65.921875 
Q 27.828125 65.921875 22.671875 59.328125 
Q 17.53125 52.734375 16.796875 39.40625 
Q 19.671875 43.65625 24.015625 45.921875 
Q 28.375 48.1875 33.59375 48.1875 
Q 44.578125 48.1875 50.953125 41.515625 
Q 57.328125 34.859375 57.328125 23.390625 
Q 57.328125 12.15625 50.6875 5.359375 
Q 44.046875 -1.421875 33.015625 -1.421875 
Q 20.359375 -1.421875 13.671875 8.265625 
Q 6.984375 17.96875 6.984375 36.375 
Q 6.984375 53.65625 15.1875 63.9375 
Q 23.390625 74.21875 37.203125 74.21875 
Q 40.921875 74.21875 44.703125 73.484375 
Q 48.484375 72.75 52.59375 71.296875 
z
" id="DejaVuSans-36"/>
      </defs>
      <g style="fill:#008000;" transform="translate(150.734375 90.604286)scale(0.1 -0.1)">
       <use xlink:href="#DejaVuSans-31"/>
       <use x="63.623047" xlink:href="#DejaVuSans-32"/>
       <use x="127.246094" xlink:href="#DejaVuSans-2e"/>
       <use x="159.033203" xlink:href="#DejaVuSans-36"/>
      </g>
     </g>
    </g>
    <g id="text_14">
     <!-- Voltage (V) -->
     <defs>
      <path d="M 28.609375 0 
L 0.78125 72.90625 
L 11.078125 72.90625 
L 34.1875 11.53125 
L 57.328125 72.90625 
L 67.578125 72.90625 
L 39.796875 0 
z
" id="DejaVuSans-56"/>
      <path d="M 30.609375 48.390625 
Q 23.390625 48.390625 19.1875 42.75 
Q 14.984375 37.109375 14.984375 27.296875 
Q 14.984375 17.484375 19.15625 11.84375 
Q 23.34375 6.203125 30.609375 6.203125 
Q 37.796875 6.203125 41.984375 11.859375 
Q 46.1875 17.53125 46.1875 27.296875 
Q 46.1875 37.015625 41.984375 42.703125 
Q 37.796875 48.390625 30.609375 48.390625 
z
M 30.609375 56 
Q 42.328125 56 49.015625 48.375 
Q 55.71875 40.765625 55.71875 27.296875 
Q 55.71875 13.875 49.015625 6.21875 
Q 42.328125 -1.421875 30.609375 -1.421875 
Q 18.84375 -1.421875 12.171875 6.21875 
Q 5.515625 13.875 5.515625 27.296875 
Q 5.515625 40.765625 12.171875 48.375 
Q 18.84375 56 30.609375 56 
z
" id="DejaVuSans-6f"/>
      <path d="M 9.421875 75.984375 
L 18.40625 75.984375 
L 18.40625 0 
L 9.421875 0 
z
" id="DejaVuSans-6c"/>
      <path d="M 18.3125 70.21875 
L 18.3125 54.6875 
L 36.8125 54.6875 
L 36.8125 47.703125 
L 18.3125 47.703125 
L 18.3125 18.015625 
Q 18.3125 11.328125 20.140625 9.421875 
Q 21.96875 7.515625 27.59375 7.515625 
L 36.8125 7.515625 
L 36.8125 0 
L 27.59375 0 
Q 17.1875 0 13.234375 3.875 
Q 9.28125 7.765625 9.28125 18.015625 
L 9.28125 47.703125 
L 2.6875 47.703125 
L 2.6875 54.6875 
L 9.28125 54.6875 
L 9.28125 70.21875 
z
" id="DejaVuSans-74"/>
      <path d="M 34.28125 27.484375 
Q 23.390625 27.484375 19.1875 25 
Q 14.984375 22.515625 14.984375 16.5 
Q 14.984375 11.71875 18.140625 8.90625 
Q 21.296875 6.109375 26.703125 6.109375 
Q 34.1875 6.109375 38.703125 11.40625 
Q 43.21875 16.703125 43.21875 25.484375 
L 43.21875 27.484375 
z
M 52.203125 31.203125 
L 52.203125 0 
L 43.21875 0 
L 43.21875 8.296875 
Q 40.140625 3.328125 35.546875 0.953125 
Q 30.953125 -1.421875 24.3125 -1.421875 
Q 15.921875 -1.421875 10.953125 3.296875 
Q 6 8.015625 6 15.921875 
Q 6 25.140625 12.171875 29.828125 
Q 18.359375 34.515625 30.609375 34.515625 
L 43.21875 34.515625 
L 43.21875 35.40625 
Q 43.21875 41.609375 39.140625 45 
Q 35.0625 48.390625 27.6875 48.390625 
Q 23 48.390625 18.546875 47.265625 
Q 14.109375 46.140625 10.015625 43.890625 
L 10.015625 52.203125 
Q 14.9375 54.109375 19.578125 55.046875 
Q 24.21875 56 28.609375 56 
Q 40.484375 56 46.34375 49.84375 
Q 52.203125 43.703125 52.203125 31.203125 
z
" id="DejaVuSans-61"/>
      <path d="M 45.40625 27.984375 
Q 45.40625 37.75 41.375 43.109375 
Q 37.359375 48.484375 30.078125 48.484375 
Q 22.859375 48.484375 18.828125 43.109375 
Q 14.796875 37.75 14.796875 27.984375 
Q 14.796875 18.265625 18.828125 12.890625 
Q 22.859375 7.515625 30.078125 7.515625 
Q 37.359375 7.515625 41.375 12.890625 
Q 45.40625 18.265625 45.40625 27.984375 
z
M 54.390625 6.78125 
Q 54.390625 -7.171875 48.1875 -13.984375 
Q 42 -20.796875 29.203125 -20.796875 
Q 24.46875 -20.796875 20.265625 -20.09375 
Q 16.0625 -19.390625 12.109375 -17.921875 
L 12.109375 -9.1875 
Q 16.0625 -11.328125 19.921875 -12.34375 
Q 23.78125 -13.375 27.78125 -13.375 
Q 36.625 -13.375 41.015625 -8.765625 
Q 45.40625 -4.15625 45.40625 5.171875 
L 45.40625 9.625 
Q 42.625 4.78125 38.28125 2.390625 
Q 33.9375 0 27.875 0 
Q 17.828125 0 11.671875 7.65625 
Q 5.515625 15.328125 5.515625 27.984375 
Q 5.515625 40.671875 11.671875 48.328125 
Q 17.828125 56 27.875 56 
Q 33.9375 56 38.28125 53.609375 
Q 42.625 51.21875 45.40625 46.390625 
L 45.40625 54.6875 
L 54.390625 54.6875 
z
" id="DejaVuSans-67"/>
      <path d="M 56.203125 29.59375 
L 56.203125 25.203125 
L 14.890625 25.203125 
Q 15.484375 15.921875 20.484375 11.0625 
Q 25.484375 6.203125 34.421875 6.203125 
Q 39.59375 6.203125 44.453125 7.46875 
Q 49.3125 8.734375 54.109375 11.28125 
L 54.109375 2.78125 
Q 49.265625 0.734375 44.1875 -0.34375 
Q 39.109375 -1.421875 33.890625 -1.421875 
Q 20.796875 -1.421875 13.15625 6.1875 
Q 5.515625 13.8125 5.515625 26.8125 
Q 5.515625 40.234375 12.765625 48.109375 
Q 20.015625 56 32.328125 56 
Q 43.359375 56 49.78125 48.890625 
Q 56.203125 41.796875 56.203125 29.59375 
z
M 47.21875 32.234375 
Q 47.125 39.59375 43.09375 43.984375 
Q 39.0625 48.390625 32.421875 48.390625 
Q 24.90625 48.390625 20.390625 44.140625 
Q 15.875 39.890625 15.1875 32.171875 
z
" id="DejaVuSans-65"/>
      <path id="DejaVuSans-20"/>
      <path d="M 31 75.875 
Q 24.46875 64.65625 21.28125 53.65625 
Q 18.109375 42.671875 18.109375 31.390625 
Q 18.109375 20.125 21.3125 9.0625 
Q 24.515625 -2 31 -13.1875 
L 23.1875 -13.1875 
Q 15.875 -1.703125 12.234375 9.375 
Q 8.59375 20.453125 8.59375 31.390625 
Q 8.59375 42.28125 12.203125 53.3125 
Q 15.828125 64.359375 23.1875 75.875 
z
" id="DejaVuSans-28"/>
      <path d="M 8.015625 75.875 
L 15.828125 75.875 
Q 23.140625 64.359375 26.78125 53.3125 
Q 30.421875 42.28125 30.421875 31.390625 
Q 30.421875 20.453125 26.78125 9.375 
Q 23.140625 -1.703125 15.828125 -13.1875 
L 8.015625 -13.1875 
Q 14.5 -2 17.703125 9.0625 
Q 20.90625 20.125 20.90625 31.390625 
Q 20.90625 42.671875 17.703125 53.65625 
Q 14.5 64.65625 8.015625 75.875 
z
" id="DejaVuSans-29"/>
     </defs>
     <g style="fill:#008000;" transform="translate(144.654687 386.249219)rotate(-90)scale(0.1 -0.1)">
      <use xlink:href="#DejaVuSans-56"/>
      <use x="68.298828" xlink:href="#DejaVuSans-6f"/>
      <use x="129.480469" xlink:href="#DejaVuSans-6c"/>
      <use x="157.263672" xlink:href="#DejaVuSans-74"/>
      <use x="196.472656" xlink:href="#DejaVuSans-61"/>
      <use x="257.751953" xlink:href="#DejaVuSans-67"/>
      <use x="321.228516" xlink:href="#DejaVuSans-65"/>
      <use x="382.751953" xlink:href="#DejaVuSans-20"/>
      <use x="414.539062" xlink:href="#DejaVuSans-28"/>
      <use x="453.552734" xlink:href="#DejaVuSans-56"/>
      <use x="521.960938" xlink:href="#DejaVuSans-29"/>
     </g>
    </g>
   </g>
   <g id="line2d_27">
    <path clip-path="url(#p7713f615bb)" d="M 230.727273 508.074814 
L 231.645844 394.656036 
L 235.471857 394.656036 
L 236.390428 427.061401 
L 237.3131 410.858718 
L 238.231671 427.061401 
L 239.174847 548.58152 
L 240.097519 394.656036 
L 241.01609 410.858718 
L 241.93056 394.656036 
L 242.849132 410.858718 
L 245.604845 410.858718 
L 246.535719 394.656036 
L 247.482995 548.58152 
L 248.397465 394.656036 
L 250.238709 427.061401 
L 251.15728 410.858718 
L 252.07175 427.061401 
L 252.990321 410.858718 
L 254.96689 410.858718 
L 255.914166 548.58152 
L 256.828637 410.858718 
L 261.437895 410.858718 
L 262.352366 427.061401 
L 263.270937 427.061401 
L 264.218214 548.58152 
L 265.136785 410.858718 
L 266.055356 427.061401 
L 266.973927 427.061401 
L 267.892498 451.365425 
L 268.81517 427.061401 
L 269.741943 427.061401 
L 270.660514 451.365425 
L 271.718511 427.061401 
L 272.669888 548.58152 
L 273.58846 410.858718 
L 274.50293 427.061401 
L 277.262744 427.061401 
L 278.181316 451.365425 
L 280.018458 451.365425 
L 280.978037 589.088227 
L 281.892507 427.061401 
L 282.815179 410.858718 
L 283.73375 427.061401 
L 286.493564 427.061401 
L 287.408035 451.365425 
L 288.326606 467.568107 
L 289.277983 548.58152 
L 290.33188 410.858718 
L 291.250451 427.061401 
L 292.169022 427.061401 
L 293.099895 451.365425 
L 294.018467 410.858718 
L 294.937038 427.061401 
L 296.77418 427.061401 
L 297.725557 548.58152 
L 298.644129 410.858718 
L 299.5627 427.061401 
L 303.236984 427.061401 
L 304.167858 451.365425 
L 305.086429 427.061401 
L 306.033706 572.885544 
L 306.952277 410.858718 
L 307.870848 451.365425 
L 308.928845 451.365425 
L 309.847416 427.061401 
L 310.770088 427.061401 
L 311.688659 451.365425 
L 312.607231 451.365425 
L 313.521701 427.061401 
L 314.473078 572.885544 
L 315.399851 427.061401 
L 316.318422 451.365425 
L 317.236993 427.061401 
L 318.155564 451.365425 
L 319.074136 427.061401 
L 319.992707 451.365425 
L 320.911278 451.365425 
L 321.83395 427.061401 
L 322.777126 572.885544 
L 323.695697 427.061401 
L 324.618369 451.365425 
L 326.603139 451.365425 
L 327.52171 427.061401 
L 328.43618 451.365425 
L 329.358852 427.061401 
L 330.277423 451.365425 
L 331.2247 572.885544 
L 332.147372 427.061401 
L 333.065943 451.365425 
L 333.984514 427.061401 
L 334.903085 467.568107 
L 335.821656 451.365425 
L 336.740228 451.365425 
L 337.671101 427.061401 
L 338.589672 451.365425 
L 339.536949 572.885544 
L 340.451419 410.858718 
L 341.36999 451.365425 
L 342.292662 427.061401 
L 343.211233 451.365425 
L 344.129805 427.061401 
L 345.183701 451.365425 
L 346.102272 451.365425 
L 347.024944 427.061401 
L 347.96812 572.885544 
L 348.886691 427.061401 
L 349.817564 427.061401 
L 350.736136 451.365425 
L 351.654707 451.365425 
L 352.569177 427.061401 
L 353.491849 451.365425 
L 354.41042 427.061401 
L 355.328992 427.061401 
L 356.276268 572.885544 
L 357.194839 451.365425 
L 358.11341 451.365425 
L 359.031982 427.061401 
L 359.950553 427.061401 
L 360.881426 451.365425 
L 363.776566 451.365425 
L 364.727943 572.885544 
L 365.646514 410.858718 
L 366.560985 451.365425 
L 372.088815 451.365425 
L 373.03199 589.088227 
L 373.954662 427.061401 
L 374.873233 451.365425 
L 380.38466 451.365425 
L 381.331937 572.885544 
L 382.389934 427.061401 
L 383.320808 451.365425 
L 384.235278 451.365425 
L 385.15795 427.061401 
L 386.076521 427.061401 
L 386.995092 451.365425 
L 388.836335 451.365425 
L 389.779511 572.885544 
L 390.698082 427.061401 
L 391.616654 451.365425 
L 393.453796 451.365425 
L 394.384669 467.568107 
L 395.30324 427.061401 
L 396.221812 451.365425 
L 397.140383 451.365425 
L 398.09176 572.885544 
L 399.010331 451.365425 
L 402.824042 451.365425 
L 403.742613 427.061401 
L 404.657084 451.365425 
L 405.587957 451.365425 
L 406.535234 589.088227 
L 407.453805 427.061401 
L 408.372376 451.365425 
L 409.295048 467.568107 
L 410.209518 451.365425 
L 412.046661 451.365425 
L 412.969332 467.568107 
L 413.887904 451.365425 
L 414.831079 589.088227 
L 415.749651 451.365425 
L 420.494235 451.365425 
L 421.412806 467.568107 
L 422.331377 451.365425 
L 423.282754 589.088227 
L 424.201325 427.061401 
L 425.119897 467.568107 
L 426.034367 427.061401 
L 426.957039 451.365425 
L 428.802383 451.365425 
L 429.720954 467.568107 
L 430.643626 451.365425 
L 431.590902 605.290909 
L 432.509474 427.061401 
L 433.432146 467.568107 
L 434.346616 451.365425 
L 435.265187 467.568107 
L 439.082999 467.568107 
L 440.034376 589.088227 
L 440.957048 467.568107 
L 441.875619 451.365425 
L 442.79419 467.568107 
L 443.708661 451.365425 
L 444.631332 451.365425 
L 445.549904 467.568107 
L 446.468475 451.365425 
L 447.387046 467.568107 
L 448.334323 605.290909 
L 449.248793 451.365425 
L 450.167364 467.568107 
L 451.102338 467.568107 
L 452.016809 491.872131 
L 452.93538 451.365425 
L 453.853951 451.365425 
L 454.907847 467.568107 
L 455.830519 467.568107 
L 456.777796 589.088227 
L 457.696367 451.365425 
L 458.619039 467.568107 
L 459.533509 467.568107 
L 460.452081 451.365425 
L 461.370652 451.365425 
L 462.301525 467.568107 
L 464.138668 467.568107 
L 465.090045 589.088227 
L 466.008616 151.615797 
L 469.682901 151.615797 
L 470.601472 175.919821 
L 471.520043 151.615797 
L 472.442715 151.615797 
L 473.537619 289.338599 
L 474.45619 135.413115 
L 475.370661 151.615797 
L 477.211904 151.615797 
L 478.130475 175.919821 
L 479.049046 151.615797 
L 479.967617 151.615797 
L 480.886188 175.919821 
L 481.833465 289.338599 
L 482.752036 151.615797 
L 484.601481 151.615797 
L 485.520052 175.919821 
L 486.442724 151.615797 
L 487.361295 175.919821 
L 488.275765 151.615797 
L 489.194337 151.615797 
L 490.145714 273.135917 
L 491.064285 151.615797 
L 492.126383 151.615797 
L 493.044954 175.919821 
L 493.967626 151.615797 
L 494.882096 151.615797 
L 495.81297 175.919821 
L 496.731541 151.615797 
L 497.650112 151.615797 
L 498.593288 289.338599 
L 499.511859 151.615797 
L 500.434531 175.919821 
L 501.353102 151.615797 
L 505.027387 151.615797 
L 505.945958 175.919821 
L 506.897335 273.135917 
L 507.820007 135.413115 
L 508.738578 151.615797 
L 509.796576 151.615797 
L 510.715147 175.919821 
L 511.637819 151.615797 
L 513.47086 151.615797 
L 514.389431 175.919821 
L 515.340809 289.338599 
L 516.25938 151.615797 
L 517.17385 175.919821 
L 518.108825 151.615797 
L 519.027396 175.919821 
L 519.941866 151.615797 
L 521.783109 151.615797 
L 522.70168 175.919821 
L 523.644856 289.338599 
L 524.563427 135.413115 
L 525.481999 175.919821 
L 526.40057 151.615797 
L 531.145154 151.615797 
L 532.09243 289.338599 
L 533.015102 151.615797 
L 535.766715 151.615797 
L 536.689387 175.919821 
L 537.607958 151.615797 
L 538.526529 151.615797 
L 539.441 175.919821 
L 540.404679 289.338599 
L 541.32325 151.615797 
L 544.078964 151.615797 
L 544.997535 175.919821 
L 545.916106 151.615797 
L 547.240653 175.919821 
L 548.159224 175.919821 
L 549.106501 508.074814 
L 550.025072 394.656036 
L 550.939542 394.656036 
L 551.874517 410.858718 
L 553.707558 410.858718 
L 554.626129 427.061401 
L 555.548801 394.656036 
L 556.467372 410.858718 
L 557.410548 532.378838 
L 558.325019 394.656036 
L 559.247691 410.858718 
L 562.934278 410.858718 
L 563.852849 427.061401 
L 564.910846 410.858718 
L 565.849921 548.58152 
L 566.772593 410.858718 
L 567.691164 410.858718 
L 568.609735 451.365425 
L 569.524206 427.061401 
L 573.19849 427.061401 
L 574.158069 273.135917 
L 575.07664 151.615797 
L 575.991111 151.615797 
L 576.913783 175.919821 
L 577.832354 151.615797 
L 578.750925 175.919821 
L 579.665395 175.919821 
L 580.588067 151.615797 
L 581.506638 151.615797 
L 582.458016 289.338599 
L 583.516013 151.615797 
L 584.438685 151.615797 
L 585.365457 175.919821 
L 586.284029 151.615797 
L 587.2026 151.615797 
L 588.125272 175.919821 
L 589.043843 151.615797 
L 589.962414 151.615797 
L 590.909691 289.338599 
L 591.828262 151.615797 
L 592.746833 151.615797 
L 593.661303 175.919821 
L 596.43342 175.919821 
L 597.351991 151.615797 
L 598.274663 151.615797 
L 599.217839 273.135917 
L 600.13641 151.615797 
L 601.054981 175.919821 
L 602.117079 151.615797 
L 603.03565 175.919821 
L 603.950121 151.615797 
L 606.709935 151.615797 
L 607.665413 289.338599 
L 608.588085 151.615797 
L 611.339698 151.615797 
L 612.26237 175.919821 
L 613.180941 175.919821 
L 614.099512 151.615797 
L 615.018083 175.919821 
L 615.96946 273.135917 
L 616.888032 151.615797 
L 623.473859 151.615797 
L 624.421135 289.338599 
L 625.339706 151.615797 
L 626.262378 175.919821 
L 627.18095 151.615797 
L 631.786108 151.615797 
L 632.737485 289.338599 
L 633.656056 151.615797 
L 640.245984 151.615797 
L 641.193261 273.135917 
L 642.111832 151.615797 
L 643.034504 175.919821 
L 643.953075 151.615797 
L 644.871646 175.919821 
L 645.790217 175.919821 
L 646.712889 151.615797 
L 648.550032 151.615797 
L 649.497308 289.338599 
L 650.41998 151.615797 
L 651.350853 175.919821 
L 652.269425 151.615797 
L 654.110668 151.615797 
L 655.029239 175.919821 
L 655.94781 175.919821 
L 657.005807 151.615797 
L 657.957184 273.135917 
L 658.875756 151.615797 
L 659.794327 175.919821 
L 661.63557 175.919821 
L 662.562343 151.615797 
L 663.480914 151.615797 
L 664.403586 175.919821 
L 665.322157 151.615797 
L 666.269433 289.338599 
L 667.192105 111.109091 
L 668.110677 175.919821 
L 669.029248 151.615797 
L 669.947819 175.919821 
L 670.870491 151.615797 
L 672.719935 151.615797 
L 673.638507 175.919821 
L 674.733411 289.338599 
L 675.651982 151.615797 
L 676.570553 175.919821 
L 677.489124 175.919821 
L 678.411796 151.615797 
L 679.330367 175.919821 
L 680.248938 175.919821 
L 681.16751 151.615797 
L 682.090182 151.615797 
L 683.037458 273.135917 
L 683.964231 151.615797 
L 684.886903 151.615797 
L 685.805474 175.919821 
L 689.483859 175.919821 
L 690.40243 151.615797 
L 691.353808 289.338599 
L 692.272379 151.615797 
L 696.102493 151.615797 
L 697.021064 175.919821 
L 698.862307 175.919821 
L 699.809583 289.338599 
L 700.724054 151.615797 
L 702.565297 151.615797 
L 703.483868 175.919821 
L 704.402439 151.615797 
L 705.337414 151.615797 
L 706.255985 175.919821 
L 707.174556 370.352012 
L 708.121832 508.074814 
L 709.040404 394.656036 
L 709.958975 370.352012 
L 710.877546 410.858718 
L 711.931442 394.656036 
L 712.854114 410.858718 
L 713.772685 394.656036 
L 714.691257 370.352012 
L 715.609828 410.858718 
L 716.573507 532.378838 
L 717.492078 370.352012 
L 718.41065 394.656036 
L 719.333322 394.656036 
L 720.247792 410.858718 
L 721.166363 394.656036 
L 722.084934 394.656036 
L 723.007606 151.615797 
L 723.926177 151.615797 
L 724.873454 289.338599 
L 725.796126 135.413115 
L 726.714697 151.615797 
L 727.64147 175.919821 
L 729.618038 175.919821 
L 730.54071 151.615797 
L 731.459281 394.656036 
L 732.377852 394.656036 
L 733.32923 508.074814 
L 734.247801 370.352012 
L 735.162271 394.656036 
L 736.080842 410.858718 
L 737.003514 394.656036 
L 737.922085 394.656036 
L 738.852959 410.858718 
L 739.767429 394.656036 
L 740.690101 410.858718 
L 741.637378 532.378838 
L 742.555949 394.656036 
L 743.478621 394.656036 
L 744.393091 427.061401 
L 745.311662 394.656036 
L 746.230234 394.656036 
L 747.152906 410.858718 
L 748.215004 394.656036 
L 749.129474 410.858718 
L 750.089053 548.58152 
L 751.011725 394.656036 
L 751.926195 410.858718 
L 757.441723 410.858718 
L 758.388999 548.58152 
L 759.307571 394.656036 
L 760.226142 410.858718 
L 765.753972 410.858718 
L 766.840674 548.58152 
L 767.759245 410.858718 
L 768.681917 427.061401 
L 769.596388 410.858718 
L 770.514959 410.858718 
L 771.445832 427.061401 
L 772.368504 410.858718 
L 773.287076 427.061401 
L 774.201546 427.061401 
L 775.152923 548.58152 
L 776.071494 427.061401 
L 776.990066 410.858718 
L 777.908637 427.061401 
L 782.517896 427.061401 
L 783.461071 548.58152 
L 784.523169 410.858718 
L 785.44174 427.061401 
L 790.957268 427.061401 
L 791.904545 548.58152 
L 792.827217 410.858718 
L 793.753989 427.061401 
L 799.269517 427.061401 
L 800.216794 548.58152 
L 801.135365 410.858718 
L 802.053936 427.061401 
L 803.111933 427.061401 
L 804.034605 451.365425 
L 804.965479 427.061401 
L 805.88405 427.061401 
L 806.806722 451.365425 
L 807.721192 427.061401 
L 808.668469 572.885544 
L 809.58704 410.858718 
L 810.509712 427.061401 
L 813.261325 427.061401 
L 814.183996 451.365425 
L 815.102568 451.365425 
L 816.033441 427.061401 
L 816.980718 589.088227 
L 817.899289 427.061401 
L 818.81786 451.365425 
L 819.736431 451.365425 
L 820.659103 427.061401 
L 821.712999 451.365425 
L 822.631571 451.365425 
L 823.550142 427.061401 
L 824.472814 451.365425 
L 825.411889 589.088227 
L 826.33046 427.061401 
L 827.261333 451.365425 
L 828.184005 427.061401 
L 829.102576 451.365425 
L 830.017047 427.061401 
L 830.935618 451.365425 
L 831.85829 427.061401 
L 832.776861 427.061401 
L 833.724138 572.885544 
L 834.64681 427.061401 
L 835.56128 451.365425 
L 837.398422 451.365425 
L 838.333397 427.061401 
L 839.395494 151.615797 
L 841.232637 151.615797 
L 842.179913 289.338599 
L 843.098484 151.615797 
L 844.017056 175.919821 
L 844.935627 151.615797 
L 845.858299 151.615797 
L 846.77687 175.919821 
L 847.695441 175.919821 
L 848.609912 151.615797 
L 849.544886 151.615797 
L 850.492162 289.338599 
L 851.414834 151.615797 
L 853.251977 151.615797 
L 854.170548 175.919821 
L 855.09322 175.919821 
L 856.011791 427.061401 
L 856.926261 410.858718 
L 857.99246 427.061401 
L 858.939736 548.58152 
L 859.866509 410.858718 
L 862.626323 410.858718 
L 863.544895 427.061401 
L 864.463466 410.858718 
L 866.304709 410.858718 
L 867.247885 532.378838 
L 868.166456 410.858718 
L 870.007699 410.858718 
L 870.934472 427.061401 
L 873.694286 427.061401 
L 874.612857 410.858718 
L 875.560134 548.58152 
L 876.622231 410.858718 
L 877.540803 427.061401 
L 878.459374 410.858718 
L 879.373844 410.858718 
L 880.296516 427.061401 
L 881.215087 151.615797 
L 883.064532 151.615797 
L 884.011808 289.338599 
L 884.93038 151.615797 
L 885.848951 151.615797 
L 886.771623 175.919821 
L 887.686093 151.615797 
L 888.604664 175.919821 
L 890.445907 175.919821 
L 891.364479 151.615797 
L 892.311755 273.135917 
L 893.246729 151.615797 
L 894.304726 151.615797 
L 895.223298 175.919821 
L 896.141869 175.919821 
L 897.06044 151.615797 
L 897.979011 175.919821 
L 898.897582 151.615797 
L 899.816153 151.615797 
L 900.767531 273.135917 
L 901.686102 151.615797 
L 902.604673 175.919821 
L 904.454118 175.919821 
L 905.372689 151.615797 
L 906.29126 175.919821 
L 907.209831 175.919821 
L 908.132503 151.615797 
L 909.07978 289.338599 
L 909.998351 151.615797 
L 910.921023 151.615797 
L 911.839594 175.919821 
L 912.901692 151.615797 
L 913.820263 175.919821 
L 915.669708 175.919821 
L 916.588279 151.615797 
L 917.535555 273.135917 
L 918.454127 151.615797 
L 919.372698 151.615797 
L 920.291269 175.919821 
L 921.20984 151.615797 
L 922.132512 151.615797 
L 923.051083 175.919821 
L 923.969654 175.919821 
L 924.888226 151.615797 
L 925.847804 289.338599 
L 926.766375 151.615797 
L 931.502758 151.615797 
L 932.417229 175.919821 
L 933.3399 175.919821 
L 934.287177 289.338599 
L 935.205748 151.615797 
L 936.177629 175.919821 
L 937.104402 151.615797 
L 938.035275 175.919821 
L 938.962048 175.919821 
L 939.888821 151.615797 
L 940.815593 151.615797 
L 941.750568 175.919821 
L 942.701945 273.135917 
L 943.632818 151.615797 
L 945.490465 151.615797 
L 946.421338 135.413115 
L 947.356312 175.919821 
L 948.430713 175.919821 
L 949.357485 151.615797 
L 950.288359 175.919821 
L 951.243837 289.338599 
L 952.170609 151.615797 
L 954.028256 151.615797 
L 954.955028 175.919821 
L 956.816775 175.919821 
L 957.743548 151.615797 
L 958.686724 151.615797 
L 959.642202 289.338599 
L 960.568974 151.615797 
L 961.503949 175.919821 
L 966.141913 175.919821 
L 967.212212 151.615797 
L 968.171791 273.135917 
L 969.110866 151.615797 
L 970.04174 175.919821 
L 970.968512 151.615797 
L 971.895285 175.919821 
L 972.826158 151.615797 
L 973.757032 175.919821 
L 975.610577 175.919821 
L 976.570156 289.338599 
L 977.50103 151.615797 
L 980.297751 151.615797 
L 981.224523 175.919821 
L 984.008942 175.919821 
L 984.968521 289.338599 
L 986.03472 151.615797 
L 987.896467 151.615797 
L 988.823239 175.919821 
L 989.750012 151.615797 
L 990.693188 175.919821 
L 991.619961 151.615797 
L 992.546733 151.615797 
L 993.502211 289.338599 
L 994.428984 151.615797 
L 995.355757 151.615797 
L 996.290731 175.919821 
L 997.217504 151.615797 
L 998.144276 175.919821 
L 999.071049 175.919821 
L 1000.001923 151.615797 
L 1000.928695 151.615797 
L 1001.896476 289.338599 
L 1002.823248 151.615797 
L 1003.893548 175.919821 
L 1004.82032 151.615797 
L 1005.751194 175.919821 
L 1008.535613 175.919821 
L 1009.462385 151.615797 
L 1010.421964 289.338599 
L 1011.352838 151.615797 
L 1012.27961 151.615797 
L 1013.214585 175.919821 
L 1014.145458 151.615797 
L 1015.076332 151.615797 
L 1016.003104 175.919821 
L 1017.86075 175.919821 
L 1018.816228 289.338599 
L 1019.747102 151.615797 
L 1021.600647 151.615797 
L 1022.666846 354.149329 
L 1023.605921 370.352012 
L 1025.463567 370.352012 
L 1026.394441 394.656036 
L 1027.345818 491.872131 
L 1028.272591 354.149329 
L 1029.203464 394.656036 
L 1030.130237 394.656036 
L 1031.057009 370.352012 
L 1031.987883 370.352012 
L 1032.914656 394.656036 
L 1034.784604 394.656036 
L 1035.740082 508.074814 
L 1036.666855 370.352012 
L 1037.597728 410.858718 
L 1038.524501 394.656036 
L 1042.379219 394.656036 
L 1043.305992 410.858718 
L 1044.26147 508.074814 
L 1045.188243 394.656036 
L 1046.127318 410.858718 
L 1047.984964 410.858718 
L 1048.911737 394.656036 
L 1051.696155 394.656036 
L 1052.655734 508.074814 
L 1053.582507 394.656036 
L 1054.50928 410.858718 
L 1057.306001 410.858718 
L 1058.236874 394.656036 
L 1059.307174 410.858718 
L 1060.233946 410.858718 
L 1061.185324 548.58152 
L 1062.116197 394.656036 
L 1063.04297 410.858718 
L 1063.969743 394.656036 
L 1064.900616 410.858718 
L 1065.831489 394.656036 
L 1066.758262 410.858718 
L 1068.62411 410.858718 
L 1069.579588 532.378838 
L 1070.510461 394.656036 
L 1071.437234 410.858718 
L 1073.29488 410.858718 
L 1074.221653 394.656036 
L 1075.148426 410.858718 
L 1076.0834 410.858718 
L 1077.010173 427.061401 
L 1078.100976 548.58152 
L 1079.027749 427.061401 
L 1079.970924 410.858718 
L 1080.897697 410.858718 
L 1081.82447 451.365425 
L 1082.755343 410.858718 
L 1083.682116 427.061401 
L 1084.608889 410.858718 
L 1085.539762 410.858718 
L 1086.491139 548.58152 
L 1087.422013 410.858718 
L 1090.206432 410.858718 
L 1091.145507 427.061401 
L 1092.072279 410.858718 
L 1092.999052 427.061401 
L 1093.929925 410.858718 
L 1094.885403 532.378838 
L 1095.812176 427.061401 
L 1096.878375 151.615797 
L 1097.809248 175.919821 
L 1102.459515 175.919821 
L 1103.414993 289.338599 
L 1104.341766 151.615797 
L 1105.268538 151.615797 
L 1106.199412 175.919821 
L 1107.126184 175.919821 
L 1108.052957 151.615797 
L 1108.983831 175.919821 
L 1109.910603 151.615797 
L 1110.837376 175.919821 
L 1111.796955 289.338599 
L 1112.731929 151.615797 
L 1113.662803 394.656036 
L 1115.663975 394.656036 
L 1116.590748 370.352012 
L 1117.517521 394.656036 
L 1119.375167 394.656036 
L 1120.330645 548.58152 
L 1121.261519 410.858718 
L 1122.188291 427.061401 
L 1124.05824 394.656036 
L 1124.985012 410.858718 
L 1127.769431 410.858718 
L 1128.724909 532.378838 
L 1129.655783 394.656036 
L 1130.582555 175.919821 
L 1131.509328 151.615797 
L 1132.440202 175.919821 
L 1133.510501 175.919821 
L 1134.437274 151.615797 
L 1135.376349 175.919821 
L 1136.307222 151.615797 
L 1137.2627 289.338599 
L 1138.193574 151.615797 
L 1139.120346 394.656036 
L 1141.904765 394.656036 
L 1142.831538 410.858718 
L 1143.758311 410.858718 
L 1144.689184 394.656036 
L 1145.644662 532.378838 
L 1146.583737 370.352012 
L 1147.51051 410.858718 
L 1148.437283 394.656036 
L 1149.364055 410.858718 
L 1150.294929 410.858718 
L 1151.221701 394.656036 
L 1153.218774 394.656036 
L 1154.174252 532.378838 
L 1155.101024 370.352012 
L 1156.031898 394.656036 
L 1156.95867 427.061401 
L 1157.897745 410.858718 
L 1158.824518 451.365425 
L 1159.755392 394.656036 
L 1160.682164 427.061401 
L 1161.608937 410.858718 
L 1162.568516 532.378838 
L 1163.495289 151.615797 
L 1164.422061 175.919821 
L 1165.352935 151.615797 
L 1166.279707 175.919821 
L 1167.20648 151.615797 
L 1168.149656 175.919821 
L 1169.076429 175.919821 
L 1170.142627 151.615797 
L 1171.102206 289.338599 
L 1172.028979 175.919821 
L 1172.955751 151.615797 
L 1173.886625 151.615797 
L 1174.813398 175.919821 
L 1175.744271 175.919821 
L 1176.671044 151.615797 
L 1177.601917 175.919821 
L 1178.52869 175.919821 
L 1180.423243 394.656036 
L 1185.061207 394.656036 
L 1185.992081 370.352012 
L 1186.918853 394.656036 
L 1187.874331 508.074814 
L 1188.944631 394.656036 
L 1189.871404 394.656036 
L 1190.806378 410.858718 
L 1191.737251 394.656036 
L 1192.664024 410.858718 
L 1193.590797 394.656036 
L 1194.517569 410.858718 
L 1195.448443 394.656036 
L 1197.330694 151.615797 
L 1199.184239 151.615797 
L 1200.111012 175.919821 
L 1201.041885 175.919821 
L 1201.98096 151.615797 
L 1202.907733 175.919821 
L 1203.838606 175.919821 
L 1204.794084 289.338599 
L 1205.724958 151.615797 
L 1207.717929 151.615797 
L 1208.644702 175.919821 
L 1209.575575 175.919821 
L 1210.502348 151.615797 
L 1211.429121 175.919821 
L 1212.372296 175.919821 
L 1213.323674 289.338599 
L 1214.250446 151.615797 
L 1215.18132 175.919821 
L 1216.108093 175.919821 
L 1217.034865 151.615797 
L 1217.961638 151.615797 
L 1218.892511 175.919821 
L 1219.819284 175.919821 
L 1220.746057 151.615797 
L 1221.705636 491.872131 
L 1222.632408 354.149329 
L 1223.575584 370.352012 
L 1224.502357 394.656036 
L 1225.572656 370.352012 
L 1226.499429 394.656036 
L 1227.430302 370.352012 
L 1228.357075 394.656036 
L 1229.283848 410.858718 
L 1230.243427 508.074814 
L 1231.170199 370.352012 
L 1232.096972 410.858718 
L 1233.027846 394.656036 
L 1233.954618 410.858718 
L 1234.893693 394.656036 
L 1236.751339 394.656036 
L 1237.678112 410.858718 
L 1238.637691 508.074814 
L 1239.564464 370.352012 
L 1240.495337 394.656036 
L 1242.348882 394.656036 
L 1243.279756 410.858718 
L 1244.341854 394.656036 
L 1245.272727 410.858718 
L 1245.272727 410.858718 
" style="fill:none;stroke:#008000;stroke-linecap:square;stroke-width:1.5;"/>
   </g>
   <g id="patch_3">
    <path d="M 180 630 
L 180 86.4 
" style="fill:none;stroke:#000000;stroke-linecap:square;stroke-linejoin:miter;stroke-width:0.8;"/>
   </g>
   <g id="patch_4">
    <path d="M 1296 630 
L 1296 86.4 
" style="fill:none;stroke:#000000;stroke-linecap:square;stroke-linejoin:miter;stroke-width:0.8;"/>
   </g>
   <g id="patch_5">
    <path d="M 180 630 
L 1296 630 
" style="fill:none;stroke:#000000;stroke-linecap:square;stroke-linejoin:miter;stroke-width:0.8;"/>
   </g>
   <g id="patch_6">
    <path d="M 180 86.4 
L 1296 86.4 
" style="fill:none;stroke:#000000;stroke-linecap:square;stroke-linejoin:miter;stroke-width:0.8;"/>
   </g>
  </g>
  <g id="axes_2">
   <g id="matplotlib.axis_3">
    <g id="ytick_8">
     <g id="line2d_28">
      <defs>
       <path d="M 0 0 
L 3.5 0 
" id="ma50a274356" style="stroke:#800080;stroke-width:0.8;"/>
      </defs>
      <g>
       <use style="fill:#800080;stroke:#800080;stroke-width:0.8;" x="1296" xlink:href="#ma50a274356" y="605.290909"/>
      </g>
     </g>
     <g id="text_15">
      <!-- 0.00 -->
      <g style="fill:#800080;" transform="translate(1303 609.090128)scale(0.1 -0.1)">
       <use xlink:href="#DejaVuSans-30"/>
       <use x="63.623047" xlink:href="#DejaVuSans-2e"/>
       <use x="95.410156" xlink:href="#DejaVuSans-30"/>
       <use x="159.033203" xlink:href="#DejaVuSans-30"/>
      </g>
     </g>
    </g>
    <g id="ytick_9">
     <g id="line2d_29">
      <g>
       <use style="fill:#800080;stroke:#800080;stroke-width:0.8;" x="1296" xlink:href="#ma50a274356" y="537.033752"/>
      </g>
     </g>
     <g id="text_16">
      <!-- 0.25 -->
      <g style="fill:#800080;" transform="translate(1303 540.832971)scale(0.1 -0.1)">
       <use xlink:href="#DejaVuSans-30"/>
       <use x="63.623047" xlink:href="#DejaVuSans-2e"/>
       <use x="95.410156" xlink:href="#DejaVuSans-32"/>
       <use x="159.033203" xlink:href="#DejaVuSans-35"/>
      </g>
     </g>
    </g>
    <g id="ytick_10">
     <g id="line2d_30">
      <g>
       <use style="fill:#800080;stroke:#800080;stroke-width:0.8;" x="1296" xlink:href="#ma50a274356" y="468.776595"/>
      </g>
     </g>
     <g id="text_17">
      <!-- 0.50 -->
      <g style="fill:#800080;" transform="translate(1303 472.575813)scale(0.1 -0.1)">
       <use xlink:href="#DejaVuSans-30"/>
       <use x="63.623047" xlink:href="#DejaVuSans-2e"/>
       <use x="95.410156" xlink:href="#DejaVuSans-35"/>
       <use x="159.033203" xlink:href="#DejaVuSans-30"/>
      </g>
     </g>
    </g>
    <g id="ytick_11">
     <g id="line2d_31">
      <g>
       <use style="fill:#800080;stroke:#800080;stroke-width:0.8;" x="1296" xlink:href="#ma50a274356" y="400.519437"/>
      </g>
     </g>
     <g id="text_18">
      <!-- 0.75 -->
      <defs>
       <path d="M 8.203125 72.90625 
L 55.078125 72.90625 
L 55.078125 68.703125 
L 28.609375 0 
L 18.3125 0 
L 43.21875 64.59375 
L 8.203125 64.59375 
z
" id="DejaVuSans-37"/>
      </defs>
      <g style="fill:#800080;" transform="translate(1303 404.318656)scale(0.1 -0.1)">
       <use xlink:href="#DejaVuSans-30"/>
       <use x="63.623047" xlink:href="#DejaVuSans-2e"/>
       <use x="95.410156" xlink:href="#DejaVuSans-37"/>
       <use x="159.033203" xlink:href="#DejaVuSans-35"/>
      </g>
     </g>
    </g>
    <g id="ytick_12">
     <g id="line2d_32">
      <g>
       <use style="fill:#800080;stroke:#800080;stroke-width:0.8;" x="1296" xlink:href="#ma50a274356" y="332.26228"/>
      </g>
     </g>
     <g id="text_19">
      <!-- 1.00 -->
      <g style="fill:#800080;" transform="translate(1303 336.061499)scale(0.1 -0.1)">
       <use xlink:href="#DejaVuSans-31"/>
       <use x="63.623047" xlink:href="#DejaVuSans-2e"/>
       <use x="95.410156" xlink:href="#DejaVuSans-30"/>
       <use x="159.033203" xlink:href="#DejaVuSans-30"/>
      </g>
     </g>
    </g>
    <g id="ytick_13">
     <g id="line2d_33">
      <g>
       <use style="fill:#800080;stroke:#800080;stroke-width:0.8;" x="1296" xlink:href="#ma50a274356" y="264.005123"/>
      </g>
     </g>
     <g id="text_20">
      <!-- 1.25 -->
      <g style="fill:#800080;" transform="translate(1303 267.804342)scale(0.1 -0.1)">
       <use xlink:href="#DejaVuSans-31"/>
       <use x="63.623047" xlink:href="#DejaVuSans-2e"/>
       <use x="95.410156" xlink:href="#DejaVuSans-32"/>
       <use x="159.033203" xlink:href="#DejaVuSans-35"/>
      </g>
     </g>
    </g>
    <g id="ytick_14">
     <g id="line2d_34">
      <g>
       <use style="fill:#800080;stroke:#800080;stroke-width:0.8;" x="1296" xlink:href="#ma50a274356" y="195.747966"/>
      </g>
     </g>
     <g id="text_21">
      <!-- 1.50 -->
      <g style="fill:#800080;" transform="translate(1303 199.547185)scale(0.1 -0.1)">
       <use xlink:href="#DejaVuSans-31"/>
       <use x="63.623047" xlink:href="#DejaVuSans-2e"/>
       <use x="95.410156" xlink:href="#DejaVuSans-35"/>
       <use x="159.033203" xlink:href="#DejaVuSans-30"/>
      </g>
     </g>
    </g>
    <g id="ytick_15">
     <g id="line2d_35">
      <g>
       <use style="fill:#800080;stroke:#800080;stroke-width:0.8;" x="1296" xlink:href="#ma50a274356" y="127.490809"/>
      </g>
     </g>
     <g id="text_22">
      <!-- 1.75 -->
      <g style="fill:#800080;" transform="translate(1303 131.290027)scale(0.1 -0.1)">
       <use xlink:href="#DejaVuSans-31"/>
       <use x="63.623047" xlink:href="#DejaVuSans-2e"/>
       <use x="95.410156" xlink:href="#DejaVuSans-37"/>
       <use x="159.033203" xlink:href="#DejaVuSans-35"/>
      </g>
     </g>
    </g>
    <g id="text_23">
     <!-- Current ($A$) -->
     <defs>
      <path d="M 64.40625 67.28125 
L 64.40625 56.890625 
Q 59.421875 61.53125 53.78125 63.8125 
Q 48.140625 66.109375 41.796875 66.109375 
Q 29.296875 66.109375 22.65625 58.46875 
Q 16.015625 50.828125 16.015625 36.375 
Q 16.015625 21.96875 22.65625 14.328125 
Q 29.296875 6.6875 41.796875 6.6875 
Q 48.140625 6.6875 53.78125 8.984375 
Q 59.421875 11.28125 64.40625 15.921875 
L 64.40625 5.609375 
Q 59.234375 2.09375 53.4375 0.328125 
Q 47.65625 -1.421875 41.21875 -1.421875 
Q 24.65625 -1.421875 15.125 8.703125 
Q 5.609375 18.84375 5.609375 36.375 
Q 5.609375 53.953125 15.125 64.078125 
Q 24.65625 74.21875 41.21875 74.21875 
Q 47.75 74.21875 53.53125 72.484375 
Q 59.328125 70.75 64.40625 67.28125 
z
" id="DejaVuSans-43"/>
      <path d="M 8.5 21.578125 
L 8.5 54.6875 
L 17.484375 54.6875 
L 17.484375 21.921875 
Q 17.484375 14.15625 20.5 10.265625 
Q 23.53125 6.390625 29.59375 6.390625 
Q 36.859375 6.390625 41.078125 11.03125 
Q 45.3125 15.671875 45.3125 23.6875 
L 45.3125 54.6875 
L 54.296875 54.6875 
L 54.296875 0 
L 45.3125 0 
L 45.3125 8.40625 
Q 42.046875 3.421875 37.71875 1 
Q 33.40625 -1.421875 27.6875 -1.421875 
Q 18.265625 -1.421875 13.375 4.4375 
Q 8.5 10.296875 8.5 21.578125 
z
M 31.109375 56 
z
" id="DejaVuSans-75"/>
      <path d="M 41.109375 46.296875 
Q 39.59375 47.171875 37.8125 47.578125 
Q 36.03125 48 33.890625 48 
Q 26.265625 48 22.1875 43.046875 
Q 18.109375 38.09375 18.109375 28.8125 
L 18.109375 0 
L 9.078125 0 
L 9.078125 54.6875 
L 18.109375 54.6875 
L 18.109375 46.1875 
Q 20.953125 51.171875 25.484375 53.578125 
Q 30.03125 56 36.53125 56 
Q 37.453125 56 38.578125 55.875 
Q 39.703125 55.765625 41.0625 55.515625 
z
" id="DejaVuSans-72"/>
      <path d="M 54.890625 33.015625 
L 54.890625 0 
L 45.90625 0 
L 45.90625 32.71875 
Q 45.90625 40.484375 42.875 44.328125 
Q 39.84375 48.1875 33.796875 48.1875 
Q 26.515625 48.1875 22.3125 43.546875 
Q 18.109375 38.921875 18.109375 30.90625 
L 18.109375 0 
L 9.078125 0 
L 9.078125 54.6875 
L 18.109375 54.6875 
L 18.109375 46.1875 
Q 21.34375 51.125 25.703125 53.5625 
Q 30.078125 56 35.796875 56 
Q 45.21875 56 50.046875 50.171875 
Q 54.890625 44.34375 54.890625 33.015625 
z
" id="DejaVuSans-6e"/>
      <path d="M 36.8125 72.90625 
L 48 72.90625 
L 61.53125 0 
L 51.21875 0 
L 48.1875 18.703125 
L 15.375 18.703125 
L 5.078125 0 
L -5.328125 0 
z
M 40.375 63.1875 
L 19.921875 26.90625 
L 46.6875 26.90625 
z
" id="DejaVuSans-Oblique-41"/>
     </defs>
     <g style="fill:#800080;" transform="translate(1336.864063 386.1)rotate(-90)scale(0.1 -0.1)">
      <use transform="translate(0 0.125)" xlink:href="#DejaVuSans-43"/>
      <use transform="translate(69.824219 0.125)" xlink:href="#DejaVuSans-75"/>
      <use transform="translate(133.203125 0.125)" xlink:href="#DejaVuSans-72"/>
      <use transform="translate(174.316406 0.125)" xlink:href="#DejaVuSans-72"/>
      <use transform="translate(215.429688 0.125)" xlink:href="#DejaVuSans-65"/>
      <use transform="translate(276.953125 0.125)" xlink:href="#DejaVuSans-6e"/>
      <use transform="translate(340.332031 0.125)" xlink:href="#DejaVuSans-74"/>
      <use transform="translate(379.541016 0.125)" xlink:href="#DejaVuSans-20"/>
      <use transform="translate(411.328125 0.125)" xlink:href="#DejaVuSans-28"/>
      <use transform="translate(450.341797 0.125)" xlink:href="#DejaVuSans-Oblique-41"/>
      <use transform="translate(518.75 0.125)" xlink:href="#DejaVuSans-29"/>
     </g>
    </g>
   </g>
   <g id="line2d_36">
    <path clip-path="url(#p7713f615bb)" d="M 230.727273 272.195982 
L 231.645844 272.195982 
L 232.568516 291.307986 
L 234.405658 291.307986 
L 235.471857 272.195982 
L 236.390428 272.195982 
L 237.3131 250.353692 
L 238.231671 272.195982 
L 239.174847 231.241688 
L 240.097519 272.195982 
L 241.01609 250.353692 
L 245.604845 250.353692 
L 246.535719 231.241688 
L 247.482995 231.241688 
L 248.397465 250.353692 
L 249.316037 272.195982 
L 250.238709 231.241688 
L 251.15728 250.353692 
L 252.07175 231.241688 
L 252.990321 231.241688 
L 254.044218 250.353692 
L 254.96689 231.241688 
L 255.914166 190.287393 
L 256.828637 250.353692 
L 257.747208 231.241688 
L 258.678081 250.353692 
L 259.596652 231.241688 
L 260.515224 231.241688 
L 261.437895 212.129684 
L 262.352366 231.241688 
L 263.270937 231.241688 
L 264.218214 190.287393 
L 265.136785 231.241688 
L 266.055356 212.129684 
L 266.973927 231.241688 
L 268.81517 231.241688 
L 269.741943 190.287393 
L 270.660514 212.129684 
L 271.718511 231.241688 
L 272.669888 190.287393 
L 273.58846 231.241688 
L 274.50293 231.241688 
L 275.421501 212.129684 
L 276.344173 231.241688 
L 277.262744 212.129684 
L 279.103987 212.129684 
L 280.018458 231.241688 
L 280.978037 190.287393 
L 281.892507 212.129684 
L 282.815179 231.241688 
L 283.73375 212.129684 
L 287.408035 212.129684 
L 288.326606 190.287393 
L 290.33188 190.287393 
L 291.250451 212.129684 
L 292.169022 212.129684 
L 293.099895 231.241688 
L 294.018467 212.129684 
L 296.77418 212.129684 
L 297.725557 149.333099 
L 298.644129 212.129684 
L 299.5627 212.129684 
L 300.481271 231.241688 
L 301.399842 212.129684 
L 302.318413 231.241688 
L 303.236984 212.129684 
L 304.167858 212.129684 
L 305.086429 190.287393 
L 306.033706 190.287393 
L 306.952277 212.129684 
L 307.870848 212.129684 
L 308.928845 171.175389 
L 309.847416 190.287393 
L 310.770088 212.129684 
L 311.688659 190.287393 
L 312.607231 212.129684 
L 313.521701 212.129684 
L 314.473078 171.175389 
L 315.399851 212.129684 
L 317.236993 212.129684 
L 318.155564 190.287393 
L 320.911278 190.287393 
L 321.83395 212.129684 
L 322.777126 171.175389 
L 323.695697 212.129684 
L 324.618369 171.175389 
L 326.603139 212.129684 
L 327.52171 190.287393 
L 328.43618 190.287393 
L 329.358852 171.175389 
L 330.277423 190.287393 
L 331.2247 149.333099 
L 332.147372 212.129684 
L 333.065943 171.175389 
L 333.984514 190.287393 
L 336.740228 190.287393 
L 337.671101 171.175389 
L 338.589672 190.287393 
L 339.536949 149.333099 
L 340.451419 190.287393 
L 342.292662 190.287393 
L 343.211233 212.129684 
L 345.183701 212.129684 
L 346.102272 190.287393 
L 347.024944 171.175389 
L 347.96812 149.333099 
L 348.886691 212.129684 
L 349.817564 190.287393 
L 350.736136 212.129684 
L 352.569177 171.175389 
L 353.491849 190.287393 
L 354.41042 190.287393 
L 355.328992 171.175389 
L 356.276268 130.221095 
L 357.194839 190.287393 
L 360.881426 190.287393 
L 361.799997 171.175389 
L 362.714468 190.287393 
L 363.776566 190.287393 
L 364.727943 130.221095 
L 365.646514 190.287393 
L 367.483656 190.287393 
L 368.402228 171.175389 
L 369.320799 190.287393 
L 370.23937 171.175389 
L 371.157941 171.175389 
L 372.088815 190.287393 
L 373.03199 149.333099 
L 373.954662 190.287393 
L 374.873233 171.175389 
L 377.628947 171.175389 
L 378.547518 190.287393 
L 379.466089 171.175389 
L 380.38466 171.175389 
L 381.331937 149.333099 
L 383.320808 190.287393 
L 386.076521 190.287393 
L 386.995092 171.175389 
L 387.913663 190.287393 
L 388.836335 171.175389 
L 389.779511 111.109091 
L 390.698082 171.175389 
L 391.616654 190.287393 
L 392.535225 171.175389 
L 394.384669 171.175389 
L 395.30324 149.333099 
L 396.221812 171.175389 
L 397.140383 171.175389 
L 398.09176 149.333099 
L 399.010331 171.175389 
L 403.742613 171.175389 
L 404.657084 149.333099 
L 405.587957 190.287393 
L 406.535234 130.221095 
L 407.453805 171.175389 
L 408.372376 190.287393 
L 409.295048 190.287393 
L 410.209518 171.175389 
L 413.887904 171.175389 
L 414.831079 149.333099 
L 415.749651 149.333099 
L 416.668222 171.175389 
L 417.599095 190.287393 
L 418.657092 171.175389 
L 419.575664 171.175389 
L 420.494235 190.287393 
L 421.412806 171.175389 
L 422.331377 149.333099 
L 423.282754 130.221095 
L 424.201325 149.333099 
L 425.119897 190.287393 
L 426.034367 171.175389 
L 426.957039 149.333099 
L 427.87561 171.175389 
L 428.802383 190.287393 
L 430.643626 190.287393 
L 431.590902 149.333099 
L 432.509474 171.175389 
L 433.432146 149.333099 
L 434.346616 149.333099 
L 435.265187 171.175389 
L 439.082999 171.175389 
L 440.034376 130.221095 
L 440.957048 212.129684 
L 441.875619 149.333099 
L 443.708661 190.287393 
L 444.631332 171.175389 
L 446.468475 171.175389 
L 447.387046 190.287393 
L 448.334323 111.109091 
L 449.248793 149.333099 
L 451.102338 149.333099 
L 452.016809 171.175389 
L 455.830519 171.175389 
L 456.777796 130.221095 
L 457.696367 171.175389 
L 458.619039 190.287393 
L 459.533509 171.175389 
L 460.452081 171.175389 
L 461.370652 190.287393 
L 462.301525 149.333099 
L 464.138668 149.333099 
L 465.090045 130.221095 
L 466.008616 605.290909 
L 548.159224 605.290909 
L 549.106501 291.307986 
L 551.874517 291.307986 
L 552.788987 313.150276 
L 553.707558 272.195982 
L 554.626129 291.307986 
L 555.548801 291.307986 
L 557.410548 250.353692 
L 558.325019 291.307986 
L 559.247691 272.195982 
L 560.166262 250.353692 
L 564.910846 250.353692 
L 565.849921 231.241688 
L 566.772593 250.353692 
L 567.691164 250.353692 
L 568.609735 231.241688 
L 573.19849 231.241688 
L 574.158069 605.290909 
L 706.255985 605.290909 
L 707.174556 351.374284 
L 708.121832 313.150276 
L 709.040404 373.216575 
L 709.958975 332.26228 
L 710.877546 313.150276 
L 715.609828 313.150276 
L 716.573507 291.307986 
L 717.492078 313.150276 
L 718.41065 291.307986 
L 720.247792 291.307986 
L 721.166363 272.195982 
L 722.084934 313.150276 
L 723.007606 605.290909 
L 730.54071 605.290909 
L 731.459281 332.26228 
L 732.377852 313.150276 
L 733.32923 272.195982 
L 734.247801 291.307986 
L 735.162271 313.150276 
L 736.080842 291.307986 
L 737.003514 272.195982 
L 737.922085 291.307986 
L 739.767429 291.307986 
L 741.637378 250.353692 
L 742.555949 291.307986 
L 743.478621 291.307986 
L 744.393091 272.195982 
L 745.311662 272.195982 
L 746.230234 250.353692 
L 747.152906 272.195982 
L 749.129474 272.195982 
L 750.089053 231.241688 
L 751.011725 272.195982 
L 751.926195 250.353692 
L 752.844766 250.353692 
L 753.763337 272.195982 
L 754.686009 250.353692 
L 757.441723 250.353692 
L 758.388999 231.241688 
L 759.307571 231.241688 
L 760.226142 250.353692 
L 761.161116 231.241688 
L 762.075586 250.353692 
L 763.912729 250.353692 
L 764.835401 231.241688 
L 765.753972 250.353692 
L 766.840674 212.129684 
L 768.681917 250.353692 
L 769.596388 231.241688 
L 770.514959 250.353692 
L 771.445832 231.241688 
L 772.368504 231.241688 
L 773.287076 250.353692 
L 774.201546 250.353692 
L 775.152923 212.129684 
L 776.071494 250.353692 
L 776.990066 231.241688 
L 777.908637 250.353692 
L 779.745779 212.129684 
L 780.66435 231.241688 
L 781.582921 231.241688 
L 782.517896 212.129684 
L 783.461071 212.129684 
L 784.523169 231.241688 
L 788.197454 231.241688 
L 789.116025 212.129684 
L 790.038697 231.241688 
L 791.904545 190.287393 
L 792.827217 212.129684 
L 794.672561 212.129684 
L 795.591132 231.241688 
L 796.513804 212.129684 
L 797.432375 212.129684 
L 798.350946 190.287393 
L 799.269517 212.129684 
L 800.216794 171.175389 
L 801.135365 212.129684 
L 802.053936 212.129684 
L 803.111933 231.241688 
L 804.034605 212.129684 
L 804.965479 190.287393 
L 805.88405 231.241688 
L 806.806722 212.129684 
L 807.721192 212.129684 
L 808.668469 190.287393 
L 809.58704 212.129684 
L 810.509712 190.287393 
L 815.102568 190.287393 
L 816.033441 212.129684 
L 816.980718 171.175389 
L 817.899289 212.129684 
L 818.81786 190.287393 
L 819.736431 190.287393 
L 820.659103 212.129684 
L 822.631571 212.129684 
L 823.550142 231.241688 
L 824.472814 190.287393 
L 825.411889 171.175389 
L 826.33046 212.129684 
L 827.261333 212.129684 
L 828.184005 190.287393 
L 829.102576 212.129684 
L 830.017047 190.287393 
L 830.935618 190.287393 
L 831.85829 231.241688 
L 832.776861 171.175389 
L 833.724138 149.333099 
L 834.64681 212.129684 
L 836.479851 212.129684 
L 837.398422 190.287393 
L 838.333397 212.129684 
L 839.395494 605.290909 
L 855.09322 605.290909 
L 856.011791 272.195982 
L 856.926261 250.353692 
L 857.99246 250.353692 
L 858.939736 212.129684 
L 859.866509 231.241688 
L 860.78508 231.241688 
L 861.703651 212.129684 
L 862.626323 250.353692 
L 863.544895 212.129684 
L 864.463466 231.241688 
L 865.382037 212.129684 
L 866.304709 250.353692 
L 867.247885 212.129684 
L 868.166456 212.129684 
L 869.089128 231.241688 
L 870.007699 212.129684 
L 870.934472 250.353692 
L 871.853043 212.129684 
L 872.775715 231.241688 
L 873.694286 212.129684 
L 874.612857 231.241688 
L 875.560134 190.287393 
L 876.622231 212.129684 
L 877.540803 190.287393 
L 879.373844 190.287393 
L 880.296516 231.241688 
L 881.215087 605.290909 
L 1021.600647 605.290909 
L 1022.666846 351.374284 
L 1024.532694 351.374284 
L 1025.463567 313.150276 
L 1026.394441 332.26228 
L 1027.345818 313.150276 
L 1028.272591 313.150276 
L 1029.203464 332.26228 
L 1030.130237 291.307986 
L 1031.057009 313.150276 
L 1033.841428 313.150276 
L 1034.784604 332.26228 
L 1035.740082 250.353692 
L 1036.666855 291.307986 
L 1039.451274 291.307986 
L 1040.382147 272.195982 
L 1041.452447 272.195982 
L 1042.379219 291.307986 
L 1043.305992 272.195982 
L 1044.26147 231.241688 
L 1045.188243 272.195982 
L 1046.127318 291.307986 
L 1047.058191 250.353692 
L 1047.984964 272.195982 
L 1048.911737 250.353692 
L 1050.769383 250.353692 
L 1051.696155 272.195982 
L 1052.655734 212.129684 
L 1053.582507 272.195982 
L 1054.50928 250.353692 
L 1060.233946 250.353692 
L 1061.185324 231.241688 
L 1062.116197 272.195982 
L 1063.04297 231.241688 
L 1065.831489 231.241688 
L 1066.758262 250.353692 
L 1067.689136 231.241688 
L 1068.62411 250.353692 
L 1069.579588 212.129684 
L 1070.510461 250.353692 
L 1071.437234 250.353692 
L 1072.364007 212.129684 
L 1073.29488 231.241688 
L 1075.148426 231.241688 
L 1076.0834 212.129684 
L 1077.010173 231.241688 
L 1078.100976 212.129684 
L 1079.027749 231.241688 
L 1079.970924 231.241688 
L 1080.897697 212.129684 
L 1081.82447 231.241688 
L 1084.608889 231.241688 
L 1085.539762 212.129684 
L 1086.491139 190.287393 
L 1087.422013 212.129684 
L 1088.348785 231.241688 
L 1089.275558 212.129684 
L 1091.145507 212.129684 
L 1092.072279 231.241688 
L 1092.999052 231.241688 
L 1093.929925 190.287393 
L 1094.885403 190.287393 
L 1095.812176 212.129684 
L 1096.878375 605.290909 
L 1112.731929 605.290909 
L 1113.662803 272.195982 
L 1114.733102 272.195982 
L 1115.663975 250.353692 
L 1116.590748 291.307986 
L 1117.517521 250.353692 
L 1118.448394 250.353692 
L 1119.375167 272.195982 
L 1120.330645 212.129684 
L 1121.261519 231.241688 
L 1123.115064 231.241688 
L 1124.05824 250.353692 
L 1125.911785 250.353692 
L 1127.769431 212.129684 
L 1128.724909 190.287393 
L 1129.655783 250.353692 
L 1130.582555 605.290909 
L 1138.193574 605.290909 
L 1139.120346 272.195982 
L 1140.047119 272.195982 
L 1140.973892 250.353692 
L 1142.831538 250.353692 
L 1143.758311 231.241688 
L 1144.689184 231.241688 
L 1145.644662 212.129684 
L 1146.583737 250.353692 
L 1148.437283 250.353692 
L 1149.364055 231.241688 
L 1152.292001 231.241688 
L 1153.218774 212.129684 
L 1154.174252 171.175389 
L 1155.101024 231.241688 
L 1156.031898 212.129684 
L 1156.95867 231.241688 
L 1157.897745 190.287393 
L 1158.824518 231.241688 
L 1159.755392 231.241688 
L 1160.682164 250.353692 
L 1161.608937 212.129684 
L 1162.568516 190.287393 
L 1163.495289 605.290909 
L 1179.49647 605.290909 
L 1180.423243 291.307986 
L 1181.350016 272.195982 
L 1182.280889 250.353692 
L 1186.918853 250.353692 
L 1187.874331 212.129684 
L 1188.944631 250.353692 
L 1189.871404 250.353692 
L 1190.806378 231.241688 
L 1191.737251 250.353692 
L 1193.590797 212.129684 
L 1194.517569 250.353692 
L 1195.448443 231.241688 
L 1196.39982 605.290909 
L 1220.746057 605.290909 
L 1221.705636 272.195982 
L 1222.632408 313.150276 
L 1223.575584 291.307986 
L 1224.502357 291.307986 
L 1225.572656 272.195982 
L 1226.499429 272.195982 
L 1227.430302 250.353692 
L 1228.357075 272.195982 
L 1229.283848 272.195982 
L 1230.243427 231.241688 
L 1231.170199 231.241688 
L 1232.096972 212.129684 
L 1233.027846 272.195982 
L 1233.954618 250.353692 
L 1234.893693 231.241688 
L 1235.824567 231.241688 
L 1236.751339 250.353692 
L 1237.678112 250.353692 
L 1238.637691 212.129684 
L 1239.564464 250.353692 
L 1240.495337 231.241688 
L 1241.42211 250.353692 
L 1242.348882 231.241688 
L 1245.272727 231.241688 
L 1245.272727 231.241688 
" style="fill:none;stroke:#800080;stroke-linecap:square;stroke-width:1.5;"/>
   </g>
   <g id="patch_7">
    <path d="M 180 630 
L 180 86.4 
" style="fill:none;stroke:#000000;stroke-linecap:square;stroke-linejoin:miter;stroke-width:0.8;"/>
   </g>
   <g id="patch_8">
    <path d="M 1296 630 
L 1296 86.4 
" style="fill:none;stroke:#000000;stroke-linecap:square;stroke-linejoin:miter;stroke-width:0.8;"/>
   </g>
   <g id="patch_9">
    <path d="M 180 630 
L 1296 630 
" style="fill:none;stroke:#000000;stroke-linecap:square;stroke-linejoin:miter;stroke-width:0.8;"/>
   </g>
   <g id="patch_10">
    <path d="M 180 86.4 
L 1296 86.4 
" style="fill:none;stroke:#000000;stroke-linecap:square;stroke-linejoin:miter;stroke-width:0.8;"/>
   </g>
   <g id="text_24">
    <!-- Supply behaivor in experiment 3 -->
    <defs>
     <path d="M 53.515625 70.515625 
L 53.515625 60.890625 
Q 47.90625 63.578125 42.921875 64.890625 
Q 37.9375 66.21875 33.296875 66.21875 
Q 25.25 66.21875 20.875 63.09375 
Q 16.5 59.96875 16.5 54.203125 
Q 16.5 49.359375 19.40625 46.890625 
Q 22.3125 44.4375 30.421875 42.921875 
L 36.375 41.703125 
Q 47.40625 39.59375 52.65625 34.296875 
Q 57.90625 29 57.90625 20.125 
Q 57.90625 9.515625 50.796875 4.046875 
Q 43.703125 -1.421875 29.984375 -1.421875 
Q 24.8125 -1.421875 18.96875 -0.25 
Q 13.140625 0.921875 6.890625 3.21875 
L 6.890625 13.375 
Q 12.890625 10.015625 18.65625 8.296875 
Q 24.421875 6.59375 29.984375 6.59375 
Q 38.421875 6.59375 43.015625 9.90625 
Q 47.609375 13.234375 47.609375 19.390625 
Q 47.609375 24.75 44.3125 27.78125 
Q 41.015625 30.8125 33.5 32.328125 
L 27.484375 33.5 
Q 16.453125 35.6875 11.515625 40.375 
Q 6.59375 45.0625 6.59375 53.421875 
Q 6.59375 63.09375 13.40625 68.65625 
Q 20.21875 74.21875 32.171875 74.21875 
Q 37.3125 74.21875 42.625 73.28125 
Q 47.953125 72.359375 53.515625 70.515625 
z
" id="DejaVuSans-53"/>
     <path d="M 18.109375 8.203125 
L 18.109375 -20.796875 
L 9.078125 -20.796875 
L 9.078125 54.6875 
L 18.109375 54.6875 
L 18.109375 46.390625 
Q 20.953125 51.265625 25.265625 53.625 
Q 29.59375 56 35.59375 56 
Q 45.5625 56 51.78125 48.09375 
Q 58.015625 40.1875 58.015625 27.296875 
Q 58.015625 14.40625 51.78125 6.484375 
Q 45.5625 -1.421875 35.59375 -1.421875 
Q 29.59375 -1.421875 25.265625 0.953125 
Q 20.953125 3.328125 18.109375 8.203125 
z
M 48.6875 27.296875 
Q 48.6875 37.203125 44.609375 42.84375 
Q 40.53125 48.484375 33.40625 48.484375 
Q 26.265625 48.484375 22.1875 42.84375 
Q 18.109375 37.203125 18.109375 27.296875 
Q 18.109375 17.390625 22.1875 11.75 
Q 26.265625 6.109375 33.40625 6.109375 
Q 40.53125 6.109375 44.609375 11.75 
Q 48.6875 17.390625 48.6875 27.296875 
z
" id="DejaVuSans-70"/>
     <path d="M 32.171875 -5.078125 
Q 28.375 -14.84375 24.75 -17.8125 
Q 21.140625 -20.796875 15.09375 -20.796875 
L 7.90625 -20.796875 
L 7.90625 -13.28125 
L 13.1875 -13.28125 
Q 16.890625 -13.28125 18.9375 -11.515625 
Q 21 -9.765625 23.484375 -3.21875 
L 25.09375 0.875 
L 2.984375 54.6875 
L 12.5 54.6875 
L 29.59375 11.921875 
L 46.6875 54.6875 
L 56.203125 54.6875 
z
" id="DejaVuSans-79"/>
     <path d="M 48.6875 27.296875 
Q 48.6875 37.203125 44.609375 42.84375 
Q 40.53125 48.484375 33.40625 48.484375 
Q 26.265625 48.484375 22.1875 42.84375 
Q 18.109375 37.203125 18.109375 27.296875 
Q 18.109375 17.390625 22.1875 11.75 
Q 26.265625 6.109375 33.40625 6.109375 
Q 40.53125 6.109375 44.609375 11.75 
Q 48.6875 17.390625 48.6875 27.296875 
z
M 18.109375 46.390625 
Q 20.953125 51.265625 25.265625 53.625 
Q 29.59375 56 35.59375 56 
Q 45.5625 56 51.78125 48.09375 
Q 58.015625 40.1875 58.015625 27.296875 
Q 58.015625 14.40625 51.78125 6.484375 
Q 45.5625 -1.421875 35.59375 -1.421875 
Q 29.59375 -1.421875 25.265625 0.953125 
Q 20.953125 3.328125 18.109375 8.203125 
L 18.109375 0 
L 9.078125 0 
L 9.078125 75.984375 
L 18.109375 75.984375 
z
" id="DejaVuSans-62"/>
     <path d="M 54.890625 33.015625 
L 54.890625 0 
L 45.90625 0 
L 45.90625 32.71875 
Q 45.90625 40.484375 42.875 44.328125 
Q 39.84375 48.1875 33.796875 48.1875 
Q 26.515625 48.1875 22.3125 43.546875 
Q 18.109375 38.921875 18.109375 30.90625 
L 18.109375 0 
L 9.078125 0 
L 9.078125 75.984375 
L 18.109375 75.984375 
L 18.109375 46.1875 
Q 21.34375 51.125 25.703125 53.5625 
Q 30.078125 56 35.796875 56 
Q 45.21875 56 50.046875 50.171875 
Q 54.890625 44.34375 54.890625 33.015625 
z
" id="DejaVuSans-68"/>
     <path d="M 9.421875 54.6875 
L 18.40625 54.6875 
L 18.40625 0 
L 9.421875 0 
z
M 9.421875 75.984375 
L 18.40625 75.984375 
L 18.40625 64.59375 
L 9.421875 64.59375 
z
" id="DejaVuSans-69"/>
     <path d="M 2.984375 54.6875 
L 12.5 54.6875 
L 29.59375 8.796875 
L 46.6875 54.6875 
L 56.203125 54.6875 
L 35.6875 0 
L 23.484375 0 
z
" id="DejaVuSans-76"/>
     <path d="M 54.890625 54.6875 
L 35.109375 28.078125 
L 55.90625 0 
L 45.3125 0 
L 29.390625 21.484375 
L 13.484375 0 
L 2.875 0 
L 24.125 28.609375 
L 4.6875 54.6875 
L 15.28125 54.6875 
L 29.78125 35.203125 
L 44.28125 54.6875 
z
" id="DejaVuSans-78"/>
     <path d="M 52 44.1875 
Q 55.375 50.25 60.0625 53.125 
Q 64.75 56 71.09375 56 
Q 79.640625 56 84.28125 50.015625 
Q 88.921875 44.046875 88.921875 33.015625 
L 88.921875 0 
L 79.890625 0 
L 79.890625 32.71875 
Q 79.890625 40.578125 77.09375 44.375 
Q 74.3125 48.1875 68.609375 48.1875 
Q 61.625 48.1875 57.5625 43.546875 
Q 53.515625 38.921875 53.515625 30.90625 
L 53.515625 0 
L 44.484375 0 
L 44.484375 32.71875 
Q 44.484375 40.625 41.703125 44.40625 
Q 38.921875 48.1875 33.109375 48.1875 
Q 26.21875 48.1875 22.15625 43.53125 
Q 18.109375 38.875 18.109375 30.90625 
L 18.109375 0 
L 9.078125 0 
L 9.078125 54.6875 
L 18.109375 54.6875 
L 18.109375 46.1875 
Q 21.1875 51.21875 25.484375 53.609375 
Q 29.78125 56 35.6875 56 
Q 41.65625 56 45.828125 52.96875 
Q 50 49.953125 52 44.1875 
z
" id="DejaVuSans-6d"/>
    </defs>
    <g transform="translate(639.734063 80.4)scale(0.12 -0.12)">
     <use xlink:href="#DejaVuSans-53"/>
     <use x="63.476562" xlink:href="#DejaVuSans-75"/>
     <use x="126.855469" xlink:href="#DejaVuSans-70"/>
     <use x="190.332031" xlink:href="#DejaVuSans-70"/>
     <use x="253.808594" xlink:href="#DejaVuSans-6c"/>
     <use x="281.591797" xlink:href="#DejaVuSans-79"/>
     <use x="340.771484" xlink:href="#DejaVuSans-20"/>
     <use x="372.558594" xlink:href="#DejaVuSans-62"/>
     <use x="436.035156" xlink:href="#DejaVuSans-65"/>
     <use x="497.558594" xlink:href="#DejaVuSans-68"/>
     <use x="560.9375" xlink:href="#DejaVuSans-61"/>
     <use x="622.216797" xlink:href="#DejaVuSans-69"/>
     <use x="650" xlink:href="#DejaVuSans-76"/>
     <use x="709.179688" xlink:href="#DejaVuSans-6f"/>
     <use x="770.361328" xlink:href="#DejaVuSans-72"/>
     <use x="811.474609" xlink:href="#DejaVuSans-20"/>
     <use x="843.261719" xlink:href="#DejaVuSans-69"/>
     <use x="871.044922" xlink:href="#DejaVuSans-6e"/>
     <use x="934.423828" xlink:href="#DejaVuSans-20"/>
     <use x="966.210938" xlink:href="#DejaVuSans-65"/>
     <use x="1027.71875" xlink:href="#DejaVuSans-78"/>
     <use x="1086.898438" xlink:href="#DejaVuSans-70"/>
     <use x="1150.375" xlink:href="#DejaVuSans-65"/>
     <use x="1211.898438" xlink:href="#DejaVuSans-72"/>
     <use x="1253.011719" xlink:href="#DejaVuSans-69"/>
     <use x="1280.794922" xlink:href="#DejaVuSans-6d"/>
     <use x="1378.207031" xlink:href="#DejaVuSans-65"/>
     <use x="1439.730469" xlink:href="#DejaVuSans-6e"/>
     <use x="1503.109375" xlink:href="#DejaVuSans-74"/>
     <use x="1542.318359" xlink:href="#DejaVuSans-20"/>
     <use x="1574.105469" xlink:href="#DejaVuSans-33"/>
    </g>
   </g>
  </g>
 </g>
 <defs>
  <clipPath id="p7713f615bb">
   <rect height="543.6" width="1116" x="180" y="86.4"/>
  </clipPath>
 </defs>
</svg>
